<?xml version="1.0" encoding="UTF-8"?>
<svg width="21px" height="21px" viewBox="0 0 21 21" version="1.1" xmlns="http://www.w3.org/2000/svg" xmlns:xlink="http://www.w3.org/1999/xlink">
    <title>Group</title>
    <g id="Website" stroke="none" stroke-width="1" fill="none" fill-rule="evenodd">
        <g id="Medium-Copy-2" transform="translate(-442.000000, -1980.000000)" fill="#FFFFFF">
            <g id="Group" transform="translate(442.000000, 1980.000000)">
                <path d="M9.00019773,0.600093025 C6.66015773,0.600093025 3.71015773,2.32009303 3.76015773,6.76009303 L0.0401577341,11.580093 C-0.0698422659,11.720093 0.0601577341,11.900093 0.260157734,11.900093 L2.74015773,13.130093 C2.87015773,14.050093 3.35015773,16.730093 3.61015773,18.070093 C3.70015773,18.490093 7.80015773,18.170093 7.80015773,18.170093 L9.00019773,20.600093" id="Path" fill-opacity="0.3" fill-rule="nonzero"></path>
                <path d="M13.8446977,0.802333025 C13.9562977,0.490343025 13.7938977,0.146913025 13.4818977,0.0352530254 C13.1699977,-0.0764069746 12.8264977,0.0859930254 12.7148977,0.397983025 L11.6948977,3.24798303 C11.5831977,3.55997303 11.7455977,3.90341303 12.0575977,4.01507303 C12.3695977,4.12673303 12.7129977,3.96433303 12.8246977,3.65233303 L13.8446977,0.802333025 Z M20.0490977,3.82048303 C20.3143977,3.62191303 20.3683977,3.24588303 20.1698977,2.98060303 C19.9712977,2.71531303 19.5952977,2.66123303 19.3299977,2.85981303 L15.9099977,5.41981303 C15.6446977,5.61838303 15.5905977,5.99441303 15.7891977,6.25970303 C15.9877977,6.52498303 16.3637977,6.57906303 16.6290977,6.38048303 L20.0490977,3.82048303 Z M16.1310977,10.426193 C16.1553977,10.095793 16.4428977,9.84749303 16.7733977,9.87179303 L20.0433977,10.111793 C20.3738977,10.135993 20.6220977,10.423593 20.5978977,10.754093 C20.5735977,11.084593 20.2860977,11.332793 19.9555977,11.308593 L16.6855977,11.068593 C16.3550977,11.044293 16.1067977,10.756693 16.1310977,10.426193 Z M9.71969773,15.910193 C9.38839773,15.910193 9.11969773,16.178793 9.11969773,16.510193 C9.11969773,16.841593 9.38839773,17.110193 9.71969773,17.110193 L12.3496977,17.110193 C12.6810977,17.110193 12.9496977,16.841593 12.9496977,16.510193 C12.9496977,16.178793 12.6810977,15.910193 12.3496977,15.910193 L9.71969773,15.910193 Z M9.11969773,13.930093 C9.11969773,13.598793 9.38839773,13.330093 9.71969773,13.330093 L9.87909773,13.330093 C8.55989773,12.222793 6.75385773,9.79309303 8.22979773,7.85018303 C9.66979773,5.96018303 12.3997977,5.96018303 13.8397977,7.85018303 C15.3141977,9.79109303 13.5203977,12.224593 12.1980977,13.330093 L12.3496977,13.330093 C12.6810977,13.330093 12.9496977,13.598793 12.9496977,13.930093 C12.9496977,14.261493 12.6810977,14.530093 12.3496977,14.530093 L9.71969773,14.530093 C9.38839773,14.530093 9.11969773,14.261493 9.11969773,13.930093 Z M11.6397977,13.330093 L11.6397977,10.774893 C11.9182977,10.575293 12.0997977,10.248993 12.0997977,9.88019303 C12.0997977,9.27269303 11.6072977,8.78019303 10.9997977,8.78019303 C10.3922977,8.78019303 9.89979773,9.27269303 9.89979773,9.88019303 C9.89979773,10.283193 10.1164977,10.635593 10.4397977,10.827193 L10.4397977,13.330093 L11.6397977,13.330093 Z" id="Shape" fill-opacity="0.6"></path>
            </g>
        </g>
    </g>
</svg>