<?xml version="1.0" encoding="UTF-8"?>
<svg width="148px" height="32px" viewBox="0 0 148 32" version="1.1" xmlns="http://www.w3.org/2000/svg" xmlns:xlink="http://www.w3.org/1999/xlink">
    <title>Group 8 Copy 3</title>
    <defs>
        <polygon id="path-1" points="13.3208117 -1.65884652e-16 -1.46592259e-13 23.1194737 5.22098231 32 31.6515573 32 31.6515573 0"></polygon>
        <polygon id="path-3" points="16.5873215 0 -5.60957555e-17 21.0333254 19.996333 21.0333254 19.996333 0"></polygon>
    </defs>
    <g id="Website" stroke="none" stroke-width="1" fill="none" fill-rule="evenodd">
        <g id="Group-8-Copy-3">
            <g id="Group-3">
                <g id="Combined-Shape" transform="translate(3.635759, 0.000000)">
                    <mask id="mask-2" fill="white">
                        <use xlink:href="#path-1"></use>
                    </mask>
                    <g id="Mask" fill-rule="nonzero"></g>
                    <path d="M21.196365,0.486045236 C22.248027,0.486045236 23.2202497,1.04642003 23.7569083,1.95770873 L23.7868176,2.00966448 L27.7029134,8.97042296 L27.0850461,10.0478127 L27.0899007,10.0440452 L25.6499007,12.5510452 L25.6494156,12.5508413 L17.5517602,26.6713687 L10.7340434,12.6431758 L4.73300764,22.995754 L6.53166361,26.2602475 C7.14386313,27.3714122 8.29370452,28.0673535 9.54794719,28.0906256 L9.61291269,28.0912281 L18.9185261,28.0912281 C20.1763072,28.0912281 21.3371407,27.4140483 21.9677267,26.317186 L21.9998681,26.2600788 L26.6768478,17.7701073 C27.2604743,16.7106687 27.2712822,15.4254824 26.7092715,14.3576829 L26.6850398,14.3129721 L26.5349007,14.0580452 L28.4859007,10.5480452 L29.6797973,12.5773801 L29.6915491,12.5987128 C30.8539605,14.7088009 30.8677987,17.2715416 29.7330638,19.3924072 L29.6915491,19.468871 L25.0145694,27.9588425 C23.7956885,30.1714379 21.4992981,31.5519464 18.9992426,31.5810685 L9.61291269,31.5815386 C7.10871207,31.5815386 4.79874839,30.224712 3.55674632,28.0302551 L3.51399275,27.9536213 L0.75825459,22.9518549 L2.10426034,20.6294822 L3.29639756,18.574632 L3.29490074,18.5730452 L11.0014186,5.28092021 L17.8030175,19.2761936 L23.7229539,8.95360037 L20.9225961,3.97625898 L7.68819146,3.97625898 L1.12992448,15.4240969 C0.914827896,15.7995606 0.91555518,16.2610656 1.13183408,16.6358494 L1.93690074,18.0310452 L-0.098099264,21.4290452 L-2.33576842,17.5508908 C-2.86503972,16.6337085 -2.8773651,15.5041158 -2.37209524,14.5768133 L-2.34051362,14.520296 L4.838179,1.9892334 C5.36112008,1.07639204 6.31693071,0.507787341 7.35694095,0.48665553 L21.196365,0.486045236 Z" fill="#FFFFFF" fill-rule="nonzero" mask="url(#mask-2)"></path>
                </g>
                <g id="Combined-Shape-Copy" transform="translate(9.998167, 11.002708) scale(-1, -1) translate(-9.998167, -11.002708) translate(0.000000, 0.486045)">
                    <mask id="mask-4" fill="white">
                        <use xlink:href="#path-3"></use>
                    </mask>
                    <g id="Mask"></g>
                    <path d="M16.5327347,-0.000743849494 L17.7257693,2.02916696 L17.7375211,2.05049957 C18.8999325,4.16058774 18.9137707,6.72332843 17.7790358,8.84419404 L17.7375211,8.92065784 L13.0605414,17.4106293 C11.8416605,19.6232247 9.54527013,21.0037332 7.04521459,21.0328553 L6.96449808,21.0333254 L-2.34111531,21.0333254 C-2.99220747,21.0333254 -2.46202253,19.916614 -0.750560489,17.6831912 L-0.643265329,17.5422562 L6.96449808,17.5430149 C8.2222792,17.5430149 9.38311271,16.8658351 10.0136987,15.7689728 L10.0458401,15.7118656 L14.7228198,7.22189408 C15.3064463,6.16245553 15.3172542,4.87726925 14.7552435,3.80946967 L14.7310118,3.76475891 L14.5807347,3.51025615 L16.5327347,-0.000743849494 Z M10.3027347,5.04625615 L10.2355248,5.11963734 C5.04545047,10.7362331 1.42808232,14.8660829 -0.616579628,17.5091868 L-0.643265329,17.5422562 L-2.40608082,17.5424124 C-2.73962503,17.5362236 -2.08609404,16.7082706 -0.445487837,15.0585535 L-0.126306886,14.7396014 C1.91330725,12.7133454 5.27255611,9.58846125 9.9514397,5.36494903 L10.3027347,5.04625615 Z M14.5856202,0.45537569 L13.6957347,2.00325615 L13.6953876,2.00262808 C12.631436,2.95383189 11.6199368,3.86136779 10.66089,4.72523578 L10.3027347,5.04625615 L10.5838597,4.74299503 C11.8295704,3.39717671 13.1634906,1.96797027 14.5856202,0.45537569 Z" fill="#FFFFFF" fill-rule="nonzero" mask="url(#mask-4)"></path>
                </g>
            </g>
            <g id="Group" transform="translate(41.874713, 3.733333)" fill="#FFFFFF">
                <g id="NEXUS" fill-rule="nonzero">
                    <polygon id="Path" points="20.2832263 24.8 3.10865835 9.07773585 4.43214656 9.82641509 4.52448294 23.8641509 0 23.8641509 0 0 0.184672773 0 16.9898951 15.6598742 16.0049737 15.2231447 15.9126373 0.904654088 20.4063414 0.904654088 20.4063414 24.8"></polygon>
                    <path d="M37.7914617,10.2656541 L35.5257156,14.6856313 L30.7164617,14.6846541 L30.7172379,19.4968553 L42.1361711,19.4968553 L42.1361711,23.8641509 L26.2543126,23.8641509 L26.2534617,10.2656541 L37.7914617,10.2656541 Z M16.1154617,5.26715046 L16.1154617,0.907853572 L26.2534617,0.907654088 L26.2543126,0.904654088 L41.705268,0.904654088 L39.2024617,5.26665409 L16.1154617,5.26715046 Z" id="Combined-Shape"></path>
                    <path d="M44.9062627,0.904654088 L50.6003399,0.904654088 L65.3741617,23.8641509 L59.618527,23.8641509 L44.9062627,0.904654088 Z M44.5984747,23.8641509 L52.6625192,11.0118239 L54.7554773,15.5662893 L50.1386579,23.8641509 L44.5984747,23.8641509 Z M55.0632652,9.3272956 L59.7416421,0.904654088 L65.1587101,0.904654088 L57.3716749,13.2266667 L55.0632652,9.3272956 Z" id="Shape"></path>
                    <path d="M73.0688606,15.3791195 C73.0688606,16.1070021 73.2843122,16.8036897 73.7152153,17.4691824 C74.1461184,18.1346751 74.7155262,18.6753878 75.4234385,19.0913208 C76.1313508,19.5072537 76.9059504,19.7152201 77.7472375,19.7152201 C78.6706014,19.7152201 79.4913693,19.5072537 80.2095412,19.0913208 C80.9277131,18.6753878 81.4971208,18.1346751 81.9177643,17.4691824 C82.3384079,16.8036897 82.5487296,16.1070021 82.5487296,15.3791195 L82.5487296,0.904654088 L86.9500974,0.904654088 L86.9500974,15.4727044 C86.9500974,17.1572327 86.5397134,18.649392 85.7189456,19.9491824 C84.8981777,21.2489727 83.790141,22.2680084 82.3948356,23.0062893 C80.9995303,23.7445702 79.4503309,24.1137107 77.7472375,24.1137107 C76.0646634,24.1137107 74.5308534,23.7445702 73.1458076,23.0062893 C71.7607618,22.2680084 70.657855,21.2489727 69.8370871,19.9491824 C69.0163192,18.649392 68.6059352,17.1572327 68.6059352,15.4727044 L68.6059352,0.904654088 L73.0688606,0.904654088 L73.0688606,15.3791195 Z" id="Path"></path>
                    <path d="M104.432453,6.45735849 C103.570647,5.97903564 102.693451,5.58389937 101.800866,5.27194969 C100.908281,4.96 100.072124,4.80402516 99.2923944,4.80402516 C98.3279921,4.80402516 97.5687818,5.00159329 97.0147635,5.39672956 C96.4607452,5.79186583 96.183736,6.38457023 96.183736,7.17484277 C96.183736,7.71555556 96.3940578,8.19907757 96.8147014,8.62540881 C97.2353449,9.05174004 97.7791036,9.43127883 98.4459775,9.76402516 C99.1128514,10.0967715 99.8053743,10.3983229 100.523546,10.6686792 C101.180161,10.918239 101.831645,11.2145912 102.478,11.5577358 C103.124354,11.9008805 103.704022,12.3272117 104.217002,12.8367296 C104.729982,13.3462474 105.140366,13.9805451 105.448154,14.7396226 C105.755941,15.4987002 105.909835,16.4293501 105.909835,17.5315723 C105.909835,18.6961845 105.612307,19.7776101 105.01725,20.7758491 C104.422194,21.7740881 103.550128,22.5799581 102.401053,23.1934591 C101.251978,23.8069602 99.8361531,24.1137107 98.153579,24.1137107 C97.2917727,24.1137107 96.414577,24.0253249 95.5219919,23.8485535 C94.6294069,23.671782 93.7522112,23.4014256 92.8904049,23.0374843 C92.0285987,22.673543 91.1975712,22.2108176 90.3973225,21.6493082 L92.3671654,18.1242767 C92.9006645,18.519413 93.4803318,18.8677568 94.1061674,19.1693082 C94.7320029,19.4708595 95.3629682,19.7048218 95.9990633,19.871195 C96.6351584,20.0375681 97.2199555,20.1207547 97.7534546,20.1207547 C98.2869537,20.1207547 98.8255827,20.0427673 99.3693414,19.8867925 C99.9131001,19.7308176 100.364522,19.4656604 100.723608,19.0913208 C101.082694,18.7169811 101.262237,18.197065 101.262237,17.5315723 C101.262237,17.0740461 101.113473,16.6581132 100.815945,16.2837736 C100.518416,15.909434 100.118292,15.5662893 99.6155718,15.2543396 C99.1128514,14.9423899 98.5639629,14.6720335 97.9689062,14.4432704 C97.2712535,14.172914 96.5530816,13.8609644 95.8143905,13.5074214 C95.0756994,13.1538784 94.3831765,12.722348 93.7368218,12.2128302 C93.0904671,11.7033124 92.5672276,11.0690147 92.1671032,10.3099371 C91.7669789,9.55085954 91.5669167,8.62020964 91.5669167,7.51798742 C91.5669167,6.1870021 91.8593153,5.03278826 92.4441124,4.05534591 C93.0289095,3.07790356 93.8548072,2.30322851 94.9218054,1.73132075 C95.9888037,1.159413 97.2199555,0.842264151 98.6152609,0.779874214 C100.441469,0.779874214 101.923981,0.998238994 103.062797,1.43496855 C104.201612,1.87169811 105.222442,2.39161426 106.125287,2.99471698 L104.432453,6.45735849 Z" id="Path"></path>
                </g>
                <rect id="Rectangle-Copy-2" x="32.2940593" y="19.4848573" width="17.3623975" height="4.39929044"></rect>
            </g>
        </g>
    </g>
</svg>