<?xml version="1.0" encoding="UTF-8"?>
<svg width="20px" height="18px" viewBox="0 0 20 18" version="1.1" xmlns="http://www.w3.org/2000/svg" xmlns:xlink="http://www.w3.org/1999/xlink">
    <title>Group</title>
    <g id="Website" stroke="none" stroke-width="1" fill="none" fill-rule="evenodd">
        <g id="Medium-Copy-2" transform="translate(-443.000000, -1933.000000)">
            <g id="Group" transform="translate(443.000000, 1933.000000)">
                <path d="M10,18 L1,18 C0.45,18 0,17.55 0,17 L0,1 C0,0.45 0.45,0 1,0 L10,0 L10,18 Z" id="Path" fill-opacity="0.3" fill="#FFFFFF" fill-rule="nonzero"></path>
                <path d="M19,18 L10,18 L10,0 L19,0 C19.55,0 20,0.45 20,1 L20,17 C20,17.55 19.55,18 19,18 Z" id="Path" fill-opacity="0.3" fill="#FFFFFF" fill-rule="nonzero"></path>
                <line x1="2" y1="9" x2="8" y2="9" id="Path" stroke-opacity="0.6" stroke="#FFFFFF" stroke-width="1.2"></line>
                <line x1="2" y1="5" x2="8" y2="5" id="Path" stroke-opacity="0.6" stroke="#FFFFFF" stroke-width="1.2"></line>
                <line x1="2" y1="13" x2="8" y2="13" id="Path" stroke-opacity="0.6" stroke="#FFFFFF" stroke-width="1.2"></line>
                <line x1="12" y1="9" x2="18" y2="9" id="Path" stroke-opacity="0.6" stroke="#FFFFFF" stroke-width="1.2"></line>
                <line x1="12" y1="5" x2="18" y2="5" id="Path" stroke-opacity="0.6" stroke="#FFFFFF" stroke-width="1.2"></line>
            </g>
        </g>
    </g>
</svg>