<?xml version="1.0" encoding="UTF-8"?>
<svg width="1440px" height="768px" viewBox="0 0 1440 768" version="1.1" xmlns="http://www.w3.org/2000/svg" xmlns:xlink="http://www.w3.org/1999/xlink">
    <title>Artboard</title>
    <defs>
        <linearGradient x1="50%" y1="0%" x2="50%" y2="100%" id="linearGradient-1">
            <stop stop-color="#002D7D" offset="0%"></stop>
            <stop stop-color="#000A24" stop-opacity="0" offset="100%"></stop>
        </linearGradient>
        <linearGradient x1="50%" y1="0%" x2="50%" y2="100%" id="linearGradient-2">
            <stop stop-color="#002D7D" offset="0%"></stop>
            <stop stop-color="#000A24" stop-opacity="0" offset="100%"></stop>
        </linearGradient>
    </defs>
    <g id="Artboard" stroke="none" stroke-width="1" fill="none" fill-rule="evenodd" fill-opacity="0.5">
        <g id="Group-38" transform="translate(-93.000000, 12.000000)">
            <path d="M76.2043222,573.301587 C76.2043222,573.301587 0,316.179104 0,316.179104 C92.7844384,331.391104 185.568877,346.603104 252.415518,322.78213 C319.262159,298.961156 328.994643,211.455785 442.718317,112.410401 C556.441991,13.3650173 725.655735,107.779045 820.235404,130.898873 C914.815074,154.018701 979.788631,141.015651 1048.86307,112.410401 C1117.93751,83.805151 1207.01727,-16.366304 1288.10898,2.30158711 C1369.20069,20.9694782 1442.30437,158.476715 1529.90626,181.081867 C1617.50815,203.687019 1703.70383,167.35409 1778.35714,149.387344 C1853.01044,131.420599 1916.12138,131.820039 1979.23231,132.219478 C1979.23231,132.219478 1979.23231,573.301587 1979.23231,573.301587 L76.2043222,573.301587 Z" id="Mask" fill="url(#linearGradient-1)" fill-rule="nonzero"></path>
            <path d="M91.7183171,174.301587 C232.726083,292.301587 423.161518,326.63492 663.024622,277.301587 C1022.81928,203.301587 1261.11091,370.68718 1591.39737,482.494383 C1706.55849,521.478251 1818.99881,540.434284 1928.71832,539.36248 C1928.71832,586.655218 1928.71832,658.968254 1928.71832,756.301587 L91.7183171,756.301587 L91.7183171,174.301587 Z" id="Path-3" fill="url(#linearGradient-2)"></path>
        </g>
    </g>
</svg>