<?xml version="1.0" encoding="UTF-8"?>
<svg width="20px" height="20px" viewBox="0 0 20 20" version="1.1" xmlns="http://www.w3.org/2000/svg" xmlns:xlink="http://www.w3.org/1999/xlink">
    <title>Group</title>
    <g id="Website" stroke="none" stroke-width="1" fill="none" fill-rule="evenodd">
        <g id="Medium-Copy-2" transform="translate(-402.000000, -1931.000000)">
            <g id="Group" transform="translate(402.000000, 1931.000000)">
                <path d="M19,20 L1,20 C0.45,20 0,19.55 0,19 L0,10 L20,10 L20,19 C20,19.55 19.55,20 19,20 Z" id="Path" fill-opacity="0.3" fill="#FFFFFF" fill-rule="nonzero"></path>
                <path d="M15,3 L19,3 C19.55,3 20,3.45 20,4 L20,10 L0,10 L0,4 C0,3.45 0.45,3 1,3 L5,3" id="Path" fill-opacity="0.5" fill="#FFFFFF" fill-rule="nonzero"></path>
                <path d="M13.5,6 C12.67,6 12,5.33 12,4.5 L12,1.5 C12,0.67 12.67,0 13.5,0 C14.33,0 15,0.67 15,1.5 L15,4.5 C15,5.33 14.33,6 13.5,6 Z" id="Path" fill-opacity="0.6" fill="#FFFFFF" fill-rule="nonzero"></path>
                <path d="M6.5,6 C5.67,6 5,5.33 5,4.5 L5,1.5 C5,0.67 5.67,0 6.5,0 C7.33,0 8,0.67 8,1.5 L8,4.5 C8,5.33 7.33,6 6.5,6 Z" id="Path" fill-opacity="0.6" fill="#FFFFFF" fill-rule="nonzero"></path>
                <line x1="15.5" y1="17" x2="16.5" y2="17" id="Path" stroke-opacity="0.6" stroke="#FFFFFF" stroke-width="1.2" stroke-linecap="round" stroke-linejoin="round"></line>
                <line x1="11.5" y1="17" x2="12.5" y2="17" id="Path" stroke-opacity="0.6" stroke="#FFFFFF" stroke-width="1.2" stroke-linecap="round" stroke-linejoin="round"></line>
                <line x1="7.5" y1="17" x2="8.5" y2="17" id="Path" stroke-opacity="0.6" stroke="#FFFFFF" stroke-width="1.2" stroke-linecap="round" stroke-linejoin="round"></line>
                <line x1="3.5" y1="17" x2="4.5" y2="17" id="Path" stroke-opacity="0.6" stroke="#FFFFFF" stroke-width="1.2" stroke-linecap="round" stroke-linejoin="round"></line>
                <line x1="15.5" y1="13" x2="16.5" y2="13" id="Path" stroke-opacity="0.6" stroke="#FFFFFF" stroke-width="1.2" stroke-linecap="round" stroke-linejoin="round"></line>
                <line x1="11.5" y1="13" x2="12.5" y2="13" id="Path" stroke-opacity="0.6" stroke="#FFFFFF" stroke-width="1.2" stroke-linecap="round" stroke-linejoin="round"></line>
                <line x1="7.5" y1="13" x2="8.5" y2="13" id="Path" stroke-opacity="0.6" stroke="#FFFFFF" stroke-width="1.2" stroke-linecap="round" stroke-linejoin="round"></line>
                <line x1="3.5" y1="13" x2="4.5" y2="13" id="Path" stroke-opacity="0.6" stroke="#FFFFFF" stroke-width="1.2" stroke-linecap="round" stroke-linejoin="round"></line>
            </g>
        </g>
    </g>
</svg>